<svg width="172" height="152" viewBox="0 0 172 152" fill="none" xmlns="http://www.w3.org/2000/svg">
<path d="M50.0997 78.2305V34.0249C54.5159 33.7806 56.7198 33.0834 60.2804 31.0779V69.9252C55.3406 71.8963 53.2219 73.8053 50.0997 78.2305Z" fill="white" fill-opacity="0.93"/>
<path d="M63.4954 29.7383V69.1215C67.549 67.16 69.7669 66.3667 73.4081 66.7103V32.4175L81.4455 27.3271V36.4362C81.1856 40.2565 79.7662 41.8816 75.8193 44.2056C78.0449 47.4601 79.8205 48.5261 83.5888 49.5639C87.6938 47.3655 89.9192 44.1162 90.2866 36.4362L89.7508 11.5203C81.4611 21.5459 76.3518 26.4827 63.4954 29.7383Z" fill="white"/>
<path d="M86.8037 59.2087C84.1564 62.6449 82.2414 64.0676 78.2305 65.9066C82.0852 65.928 84.3044 66.1289 88.4112 66.9782C88.9659 62.7037 88.3592 60.9985 86.8037 59.2087Z" fill="white"/>
<path fill-rule="evenodd" clip-rule="evenodd" d="M92.162 11.7881L92.9657 67.246C98.8335 68.8099 101.862 70.4032 106.629 75.0155L110.648 68.8535V84.9283C85.1963 58.137 57.0654 71.8005 48.7601 87.0716V129.402L83.053 150.031V88.947C77.5842 87.7111 74.4141 88.1986 68.5857 91.0903H72.0685L71.5327 131.545L61.0841 125.651V88.947C75.6399 79.1072 88.3136 81.4763 106.629 96.9844L121.364 76.0872V30.542C106.659 26.4833 101.623 21.3788 93.1856 12.8251C92.8501 12.4849 92.5091 12.1393 92.162 11.7881ZM102.343 64.8348V29.4703C105.129 32.1188 106.88 33.3914 111.452 34.0248V60.0124L107.433 67.7819C105.562 66.1979 104.487 65.4064 102.343 64.8348Z" fill="white"/>
<path d="M87.6074 90.2866V121.9C93.6375 112.806 97.0697 107.667 103.414 98.324C101.656 100.32 100.63 101.895 98.056 102.611V95.9128C94.4016 92.9694 92.0165 91.9083 87.6074 90.2866Z" fill="white"/>
<path d="M120.293 83.053L86.5359 130.206V150.031C86.5359 150.031 107.808 134.222 121.365 124.044V106.361L118.953 111.988L102.075 126.991L120.293 99.3957V83.053Z" fill="white"/>
<path d="M124.312 121.632L124.579 79.3023L144.137 56.2618L144.405 39.9191C143.149 39.4816 142.446 39.6342 141.19 39.9191C146.659 37.4251 149.204 35.6311 154.586 32.9534V101.003L143.333 109.576V91.6263L137.439 97.7883V87.6076L143.333 81.1777V69.1216L135.028 77.9627V114.131L124.312 121.632Z" fill="white"/>
<path d="M124.044 74.4796V27.327L167.445 1.07153V24.9158L164.498 20.8971L135.028 38.5793L135.564 58.1369L139.583 56.2616L124.044 74.4796Z" fill="white"/>
<path d="M0.803711 25.9876V1.87549L46.6168 25.9876V62.9596L17.6822 85.1964V101.271L31.6137 108.237L31.0779 83.0531H26.5233L46.8847 66.7104L45.8131 129.134L5.62614 106.897V53.3147L18.218 38.3116V77.159L31.0779 67.2462L30.542 36.4362L4.28658 23.5764H2.94701L0.803711 25.9876Z" fill="white"/>
</svg>
